<svg xmlns="http://www.w3.org/2000/svg" class="h-[30px]" viewBox="0 0 90 30" fill="none"><circle cx="15" cy="15" r="15" fill="url(#paint0_linear_1364_1831)"></circle><circle cx="15" cy="15" r="15" fill="url(#paint1_linear_1364_1831)"></circle><path fill-rule="evenodd" clip-rule="evenodd" d="M16.6419 10.2816C16.7571 8.6053 17.1195 3.33312 19.0171 4.80713C20.6937 6.10943 22.2284 9.60537 22.8441 11.3437C24.8653 12.0567 26.3024 13.313 26.7218 14.9817C27.621 18.5595 23.501 22.6786 17.5196 24.1819C11.5381 25.6852 5.96023 24.0035 5.06102 20.4256C4.91384 19.84 4.90113 19.2399 5.00904 18.6391C4.17709 17.0544 2.60343 13.4236 2.80743 11.2595C3.03295 8.86727 7.12284 12.2139 8.42321 13.278C8.60535 13.427 8.73276 13.5313 8.78716 13.5687C8.79656 13.5862 8.80574 13.6037 8.81471 13.6212C10.3146 12.5934 12.1756 11.7501 14.2633 11.2254C15.0594 11.0253 15.8484 10.8816 16.6202 10.7914C16.6149 10.7763 16.6096 10.7612 16.6045 10.7459C16.6145 10.6806 16.6258 10.5164 16.6419 10.2816ZM21.41 18.0563C20.6558 18.2649 19.7431 17.3447 19.3714 16.001C18.9998 14.6573 19.31 13.3989 20.0642 13.1903C20.8185 12.9817 21.7312 13.9019 22.1028 15.2456C22.4745 16.5893 22.1643 17.8477 21.41 18.0563ZM10.5921 18.0733C10.9638 19.417 11.8765 20.3372 12.6307 20.1286C13.385 19.92 13.6952 18.6616 13.3235 17.3179C12.9519 15.9742 12.0392 15.054 11.2849 15.2626C10.5307 15.4712 10.2205 16.7296 10.5921 18.0733Z" fill="white"></path><ellipse cx="20.7371" cy="15.6232" rx="2.52433" ry="1.41696" transform="rotate(74.5401 20.7371 15.6232)" fill="url(#paint2_linear_1364_1831)"></ellipse><ellipse cx="11.958" cy="17.6955" rx="2.52433" ry="1.41696" transform="rotate(74.5401 11.958 17.6955)" fill="url(#paint3_linear_1364_1831)"></ellipse><path d="M21.0561 15.4771C20.958 15.0966 18.4077 14.6537 17.2306 14.717C16.7401 14.7414 17.2306 17.2832 17.4268 17.5684C17.6229 17.8535 21.1419 15.8095 21.0561 15.4771Z" fill="white"></path><path d="M12.4023 17.2075C12.3042 16.8271 9.75381 16.3841 8.57671 16.4475C8.08625 16.4718 8.5767 19.0137 8.77288 19.2988C8.96907 19.584 12.488 17.54 12.4023 17.2075Z" fill="white"></path><path d="M82.439 24.2399C81.399 24.2399 80.455 23.9519 79.607 23.3759C78.759 22.7999 78.079 22.0159 77.567 21.0239C77.055 20.0319 76.799 18.9039 76.799 17.6399C76.799 16.3759 77.055 15.2479 77.567 14.2559C78.079 13.2639 78.775 12.4879 79.655 11.9279C80.535 11.3679 81.527 11.0879 82.631 11.0879C83.271 11.0879 83.855 11.1839 84.383 11.3759C84.911 11.5519 85.375 11.8079 85.775 12.1439C86.175 12.4799 86.503 12.8639 86.759 13.2959C87.031 13.7279 87.215 14.1919 87.311 14.6879L86.663 14.5199V11.3519H89.639V23.9999H86.639V20.9759L87.335 20.8559C87.223 21.2879 87.015 21.7119 86.711 22.1279C86.423 22.5279 86.055 22.8879 85.607 23.2079C85.175 23.5119 84.687 23.7599 84.143 23.9519C83.615 24.1439 83.047 24.2399 82.439 24.2399ZM83.255 21.6239C83.943 21.6239 84.551 21.4559 85.079 21.1199C85.607 20.7839 86.015 20.3199 86.303 19.7279C86.607 19.1199 86.759 18.4239 86.759 17.6399C86.759 16.8719 86.607 16.1919 86.303 15.5999C86.015 15.0079 85.607 14.5439 85.079 14.2079C84.551 13.8719 83.943 13.7039 83.255 13.7039C82.567 13.7039 81.959 13.8719 81.431 14.2079C80.919 14.5439 80.519 15.0079 80.231 15.5999C79.943 16.1919 79.799 16.8719 79.799 17.6399C79.799 18.4239 79.943 19.1199 80.231 19.7279C80.519 20.3199 80.919 20.7839 81.431 21.1199C81.959 21.4559 82.567 21.6239 83.255 21.6239Z" fill="white"></path><path d="M71.9326 24.0002V6.24023H74.9086V24.0002H71.9326Z" fill="white"></path><path d="M63.1961 24.2399C61.9321 24.2399 60.8041 23.9599 59.8121 23.3999C58.8201 22.8239 58.0361 22.0399 57.4601 21.0479C56.8841 20.0559 56.5961 18.9279 56.5961 17.6639C56.5961 16.3999 56.8841 15.2719 57.4601 14.2799C58.0361 13.2879 58.8201 12.5119 59.8121 11.9519C60.8041 11.3759 61.9321 11.0879 63.1961 11.0879C64.4441 11.0879 65.5641 11.3759 66.5561 11.9519C67.5481 12.5119 68.3241 13.2879 68.8841 14.2799C69.4601 15.2719 69.7481 16.3999 69.7481 17.6639C69.7481 18.9279 69.4601 20.0559 68.8841 21.0479C68.3241 22.0399 67.5481 22.8239 66.5561 23.3999C65.5641 23.9599 64.4441 24.2399 63.1961 24.2399ZM63.1961 21.6239C63.8841 21.6239 64.4921 21.4479 65.0201 21.0959C65.5641 20.7439 65.9881 20.2719 66.2921 19.6799C66.6121 19.0879 66.7641 18.4159 66.7481 17.6639C66.7641 16.8959 66.6121 16.2159 66.2921 15.6239C65.9881 15.0319 65.5641 14.5679 65.0201 14.2319C64.4921 13.8799 63.8841 13.7039 63.1961 13.7039C62.5081 13.7039 61.8841 13.8799 61.3241 14.2319C60.7801 14.5679 60.3561 15.0399 60.0521 15.6479C59.7481 16.2399 59.5961 16.9119 59.5961 17.6639C59.5961 18.4159 59.7481 19.0879 60.0521 19.6799C60.3561 20.2719 60.7801 20.7439 61.3241 21.0959C61.8841 21.4479 62.5081 21.6239 63.1961 21.6239Z" fill="white"></path><path d="M40.256 24.0012V7.20117H47C48.216 7.20117 49.312 7.40117 50.288 7.80117C51.28 8.20117 52.128 8.77717 52.832 9.52917C53.552 10.2812 54.096 11.1692 54.464 12.1932C54.848 13.2172 55.04 14.3532 55.04 15.6012C55.04 16.8492 54.848 17.9932 54.464 19.0332C54.096 20.0572 53.56 20.9452 52.856 21.6972C52.152 22.4332 51.304 23.0012 50.312 23.4012C49.32 23.8012 48.216 24.0012 47 24.0012H40.256ZM43.376 21.5772L43.136 21.1212H46.88C47.664 21.1212 48.36 20.9932 48.968 20.7372C49.592 20.4812 50.12 20.1132 50.552 19.6332C50.984 19.1532 51.312 18.5772 51.536 17.9052C51.76 17.2172 51.872 16.4492 51.872 15.6012C51.872 14.7532 51.76 13.9932 51.536 13.3212C51.312 12.6332 50.976 12.0492 50.528 11.5692C50.096 11.0892 49.576 10.7212 48.968 10.4652C48.36 10.2092 47.664 10.0812 46.88 10.0812H43.064L43.376 9.67317V21.5772Z" fill="white"></path><defs><linearGradient id="paint0_linear_1364_1831" x1="15" y1="0" x2="15" y2="30" gradientUnits="userSpaceOnUse"><stop></stop><stop offset="1" stop-color="#666666"></stop></linearGradient><linearGradient id="paint1_linear_1364_1831" x1="7.58929" y1="2.5" x2="21.1607" y2="28.3929" gradientUnits="userSpaceOnUse"><stop stop-color="#FFB404"></stop><stop offset="0.515" stop-color="#FF0000"></stop><stop offset="1" stop-color="#8908EE"></stop></linearGradient><linearGradient id="paint2_linear_1364_1831" x1="18.2128" y1="15.6232" x2="23.2615" y2="15.6232" gradientUnits="userSpaceOnUse"><stop stop-color="#FE0102"></stop><stop offset="1" stop-color="#D50355"></stop></linearGradient><linearGradient id="paint3_linear_1364_1831" x1="9.43363" y1="17.6955" x2="14.4823" y2="17.6955" gradientUnits="userSpaceOnUse"><stop stop-color="#FE0102"></stop><stop offset="1" stop-color="#D50355"></stop></linearGradient></defs></svg>